<?xml version="1.0" encoding="utf-8"?>
<!-- Generator: Adobe Illustrator 25.0.0, SVG Export Plug-In . SVG Version: 6.00 Build 0)  -->
<svg version="1.1" id="RUM" xmlns="http://www.w3.org/2000/svg" xmlns:xlink="http://www.w3.org/1999/xlink" x="0px" y="0px"
	 viewBox="0 0 580.17 746.22" style="enable-background:new 0 0 580.17 746.22;" xml:space="preserve">
<g id="DECORAZIONE">
	<g>
		<g>
			<path style="fill:#D1E7DD;" d="M580.17,464.97c0.24-4.8-7.46-9.83-7.46-14.69c0-4.86,7.71-9.89,7.46-14.69
				c-0.24-4.85-8.42-9.08-8.9-13.87c-0.49-4.83,6.67-10.61,5.94-15.37c-0.73-4.8-9.29-8.18-10.26-12.9
				c-0.98-4.75,5.56-11.23,4.35-15.89c-1.22-4.69-10.08-7.19-11.52-11.78c-1.46-4.62,4.38-11.73,2.7-16.25
				c-1.69-4.54-10.76-6.12-12.67-10.55c-1.92-4.45,3.16-12.11,1.03-16.44c-2.14-4.34-11.32-4.99-13.67-9.21
				c-2.36-4.23,1.92-12.37-0.64-16.46c-2.57-4.1-11.77-3.82-14.54-7.78c-2.77-3.97,0.66-12.49-2.3-16.31
				c-2.97-3.82-12.09-2.62-15.25-6.28c-3.16-3.67-0.59-12.5-3.93-16c-3.33-3.5-12.29-1.39-15.8-4.72
				c-3.51-3.33-1.84-12.37-5.51-15.52c-3.67-3.15-12.37-0.15-16.2-3.12c-3.82-2.96-3.08-12.12-7.05-14.89
				c-3.96-2.76-12.32,1.09-16.43-1.47c-4.1-2.56-4.28-11.75-8.51-14.11c-4.22-2.35-12.14,2.33-16.49,0.19
				c-4.33-2.13-5.45-11.26-9.9-13.17c-4.43-1.91-11.84,3.55-16.39,1.87c-4.52-1.68-6.57-10.64-11.19-12.1
				c-4.6-1.45-11.41,4.74-16.11,3.52c-4.67-1.21-7.61-9.92-12.37-10.89c-4.72-0.97-10.86,5.88-15.67,5.15
				c-4.76-0.73-8.58-9.09-13.42-9.58c-4.79-0.48-10.21,6.95-15.06,6.71c-4.81-0.24-9.45-8.18-14.32-8.18
				c-4.87,0-9.51,7.94-14.32,8.18c-4.86,0.24-10.27-7.19-15.06-6.71c-4.84,0.49-8.65,8.85-13.42,9.58
				c-4.8,0.73-10.95-6.11-15.67-5.15c-4.76,0.97-7.7,9.69-12.37,10.89c-4.7,1.22-11.51-4.97-16.11-3.52
				c-4.63,1.45-6.67,10.42-11.19,12.1c-4.55,1.69-11.95-3.77-16.39-1.87c-4.45,1.92-5.57,11.04-9.9,13.17
				c-4.35,2.14-12.27-2.54-16.49-0.19c-4.23,2.36-4.42,11.55-8.51,14.11c-4.11,2.57-12.46-1.29-16.43,1.47
				c-3.97,2.77-3.23,11.93-7.05,14.89c-3.83,2.96-12.53-0.03-16.2,3.11c-3.67,3.15-2.01,12.19-5.51,15.52
				c-3.51,3.33-12.47,1.22-15.8,4.72c-3.33,3.5-0.77,12.33-3.93,16c-3.15,3.66-12.28,2.46-15.25,6.28
				c-2.96,3.82,0.47,12.35-2.3,16.31c-2.77,3.96-11.97,3.68-14.54,7.78c-2.56,4.09,1.72,12.23-0.64,16.46
				c-2.35,4.22-11.53,4.87-13.68,9.21c-2.13,4.33,2.95,11.99,1.03,16.44c-1.91,4.43-10.98,6.01-12.67,10.55
				c-1.68,4.52,4.16,11.63,2.7,16.25c-1.45,4.6-10.31,7.09-11.52,11.78c-1.21,4.66,5.32,11.14,4.35,15.89
				c-0.97,4.72-9.53,8.1-10.26,12.9c-0.73,4.76,6.43,10.54,5.94,15.37c-0.48,4.79-8.66,9.02-8.9,13.87
				c-0.24,4.8,7.46,9.83,7.46,14.69c0,4.86-7.71,9.89-7.46,14.69c0.24,4.85,8.42,9.08,8.9,13.87c0.49,4.83-6.67,10.61-5.94,15.37
				c0.73,4.8,9.29,8.18,10.26,12.9c0.98,4.75-5.56,11.23-4.35,15.89c1.22,4.69,10.08,7.19,11.52,11.78
				c1.46,4.62-4.38,11.73-2.7,16.25c1.69,4.54,10.76,6.12,12.67,10.55c1.92,4.45-3.16,12.11-1.03,16.44
				c2.14,4.34,11.32,4.99,13.68,9.21c2.36,4.23-1.92,12.37,0.64,16.46c2.57,4.1,11.77,3.82,14.54,7.78
				c2.77,3.97-0.66,12.49,2.3,16.31c2.97,3.82,12.09,2.62,15.25,6.28c3.16,3.67,0.59,12.5,3.93,16c3.33,3.5,12.29,1.39,15.8,4.72
				c3.51,3.33,1.84,12.37,5.51,15.52c3.67,3.15,12.37,0.15,16.2,3.12c3.82,2.96,3.08,12.12,7.05,14.89
				c3.96,2.76,12.32-1.09,16.43,1.47c4.1,2.56,4.28,11.75,8.51,14.11c4.22,2.35,12.14-2.33,16.49-0.19
				c4.33,2.13,5.45,11.26,9.9,13.17c4.44,1.91,11.84-3.55,16.39-1.87c4.52,1.68,6.56,10.64,11.19,12.1
				c4.6,1.45,11.41-4.74,16.11-3.52c4.67,1.21,7.61,9.92,12.37,10.89c4.72,0.97,10.86-5.88,15.67-5.15
				c4.76,0.73,8.58,9.09,13.42,9.58c4.79,0.48,10.21-6.95,15.06-6.71c4.81,0.24,9.45,8.18,14.32,8.18c4.87,0,9.51-7.94,14.32-8.18
				c4.86-0.24,10.27,7.19,15.06,6.71c4.84-0.49,8.65-8.85,13.42-9.58c4.8-0.73,10.94,6.11,15.67,5.15
				c4.76-0.97,7.7-9.69,12.37-10.89c4.7-1.22,11.51,4.97,16.11,3.52c4.63-1.45,6.67-10.42,11.19-12.1
				c4.55-1.69,11.95,3.77,16.39,1.87c4.45-1.92,5.57-11.04,9.9-13.17c4.35-2.14,12.27,2.54,16.49,0.19
				c4.23-2.36,4.42-11.55,8.51-14.11c4.11-2.57,12.46,1.29,16.43-1.47c3.97-2.77,3.23-11.93,7.05-14.89
				c3.83-2.96,12.53,0.03,16.2-3.11c3.67-3.15,2.01-12.19,5.51-15.52c3.51-3.33,12.47-1.22,15.8-4.72c3.33-3.5,0.77-12.33,3.93-16
				c3.15-3.66,12.28-2.46,15.25-6.28c2.96-3.82-0.47-12.35,2.3-16.31c2.77-3.96,11.97-3.68,14.54-7.78
				c2.56-4.09-1.72-12.23,0.64-16.46c2.35-4.22,11.53-4.87,13.68-9.21c2.13-4.33-2.95-11.99-1.03-16.44
				c1.91-4.43,10.98-6.01,12.67-10.55c1.68-4.52-4.16-11.63-2.7-16.25c1.45-4.6,10.31-7.09,11.52-11.78
				c1.21-4.66-5.32-11.14-4.35-15.89c0.97-4.72,9.53-8.1,10.26-12.9c0.73-4.76-6.43-10.54-5.94-15.37
				C571.75,474.06,579.92,469.83,580.17,464.97z M290.09,729.57c-154.19,0-279.64-125.29-279.64-279.29S135.89,171,290.09,171
				s279.64,125.29,279.64,279.29S444.28,729.57,290.09,729.57z"/>
		</g>
		<g>
			<path style="fill:#D1E7DD;" d="M290.09,174.91c-152.03,0-275.72,123.53-275.72,275.38s123.69,275.38,275.72,275.38
				c152.03,0,275.72-123.53,275.72-275.38S442.12,174.91,290.09,174.91z M473.67,257.86c2.51-2.5,6.57-2.5,9.08,0
				c2.51,2.51,2.51,6.57,0,9.07c-2.51,2.51-6.57,2.51-9.08,0C471.16,264.42,471.16,260.36,473.67,257.86z M456.18,242.61
				c2.28-2.71,6.33-3.07,9.05-0.79c2.72,2.28,3.07,6.32,0.79,9.04s-6.33,3.07-9.05,0.79C454.26,249.37,453.9,245.32,456.18,242.61z
				 M437.43,228.94c2.03-2.9,6.04-3.61,8.94-1.58c2.91,2.03,3.61,6.03,1.58,8.93c-2.03,2.9-6.04,3.61-8.94,1.58
				C436.1,235.84,435.39,231.84,437.43,228.94z M417.55,216.96c1.77-3.07,5.7-4.12,8.77-2.35c3.07,1.77,4.12,5.69,2.35,8.76
				c-1.77,3.07-5.7,4.12-8.77,2.35C416.83,223.95,415.78,220.03,417.55,216.96z M396.7,206.75c1.5-3.21,5.32-4.6,8.53-3.1
				c3.21,1.5,4.61,5.31,3.11,8.52c-1.5,3.21-5.32,4.6-8.53,3.1C396.6,213.78,395.2,209.96,396.7,206.75z M375.05,198.4
				c1.21-3.33,4.9-5.05,8.23-3.83c3.33,1.21,5.05,4.89,3.84,8.22c-1.21,3.33-4.9,5.05-8.23,3.83
				C375.55,205.41,373.83,201.73,375.05,198.4z M352.74,191.96c0.92-3.42,4.44-5.45,7.87-4.54c3.43,0.92,5.46,4.43,4.54,7.86
				c-0.92,3.42-4.44,5.45-7.87,4.54C353.86,198.9,351.82,195.38,352.74,191.96z M329.96,187.49c0.62-3.49,3.95-5.82,7.44-5.2
				c3.49,0.62,5.83,3.94,5.21,7.43c-0.62,3.49-3.95,5.82-7.44,5.2C331.68,194.3,329.34,190.98,329.96,187.49z M313.83,179.19
				c3.53,0.31,6.15,3.42,5.84,6.95c-0.31,3.53-3.42,6.14-6.96,5.83c-3.53-0.31-6.15-3.42-5.84-6.95S310.3,178.88,313.83,179.19z
				 M290.09,178.15c3.55,0,6.42,2.87,6.42,6.41c0,3.54-2.88,6.41-6.42,6.41c-3.55,0-6.42-2.87-6.42-6.41
				C283.66,181.02,286.54,178.15,290.09,178.15z M266.34,179.19c3.53-0.31,6.65,2.3,6.96,5.83c0.31,3.53-2.3,6.64-5.84,6.95
				c-3.53,0.31-6.65-2.3-6.96-5.83S262.81,179.5,266.34,179.19z M242.77,182.29c3.49-0.62,6.82,1.71,7.44,5.2
				c0.62,3.49-1.72,6.82-5.21,7.43c-3.49,0.62-6.82-1.71-7.44-5.2C236.95,186.23,239.28,182.9,242.77,182.29z M219.57,187.43
				c3.43-0.92,6.95,1.11,7.87,4.54c0.92,3.42-1.12,6.94-4.54,7.86c-3.43,0.92-6.95-1.11-7.87-4.54S216.14,188.34,219.57,187.43z
				 M196.9,194.56c3.33-1.21,7.02,0.5,8.23,3.83c1.21,3.33-0.51,7.01-3.84,8.22c-3.33,1.21-7.02-0.5-8.23-3.83
				C191.84,199.46,193.56,195.78,196.9,194.56z M174.93,203.65c3.21-1.5,7.04-0.11,8.53,3.1c1.5,3.21,0.11,7.03-3.11,8.52
				c-3.21,1.5-7.04,0.11-8.53-3.1C170.33,208.96,171.72,205.15,174.93,203.65z M153.85,214.61c3.07-1.77,7-0.72,8.77,2.35
				c1.77,3.07,0.72,6.99-2.35,8.76c-3.07,1.77-7,0.72-8.77-2.35C149.73,220.31,150.78,216.38,153.85,214.61z M133.8,227.37
				c2.91-2.03,6.91-1.33,8.94,1.58c2.03,2.9,1.33,6.9-1.58,8.93c-2.91,2.03-6.91,1.33-8.94-1.58
				C130.19,233.4,130.9,229.4,133.8,227.37z M114.94,241.82c2.72-2.28,6.77-1.92,9.05,0.79c2.28,2.71,1.93,6.76-0.79,9.04
				c-2.72,2.28-6.77,1.92-9.05-0.79C111.87,248.14,112.23,244.1,114.94,241.82z M97.42,257.86c2.51-2.5,6.57-2.5,9.08,0
				c2.51,2.5,2.51,6.57,0,9.07c-2.51,2.5-6.57,2.5-9.08,0C94.91,264.42,94.91,260.36,97.42,257.86z M81.36,275.36
				c2.28-2.71,6.33-3.07,9.05-0.79c2.72,2.28,3.07,6.32,0.79,9.04c-2.28,2.71-6.33,3.07-9.05,0.79
				C79.44,282.12,79.08,278.08,81.36,275.36z M66.89,294.2c2.03-2.9,6.04-3.61,8.94-1.58c2.91,2.03,3.61,6.03,1.58,8.93
				c-2.03,2.9-6.04,3.61-8.94,1.58C65.56,301.1,64.86,297.1,66.89,294.2z M54.12,314.22c1.77-3.07,5.7-4.12,8.77-2.35
				c3.07,1.77,4.12,5.69,2.35,8.76c-1.77,3.07-5.7,4.12-8.77,2.35C53.4,321.21,52.35,317.29,54.12,314.22z M43.14,335.28
				c1.5-3.21,5.32-4.6,8.53-3.1c3.21,1.5,4.61,5.31,3.11,8.52c-1.5,3.21-5.32,4.6-8.53,3.1C43.03,342.3,41.64,338.49,43.14,335.28z
				 M34.05,357.21c1.21-3.33,4.9-5.05,8.23-3.83c3.33,1.21,5.05,4.89,3.84,8.22c-1.21,3.33-4.9,5.05-8.23,3.83
				C34.55,364.22,32.83,360.54,34.05,357.21z M26.9,379.85c0.92-3.42,4.44-5.45,7.87-4.54c3.43,0.92,5.46,4.43,4.54,7.86
				c-0.92,3.42-4.44,5.45-7.87,4.54C28.01,386.79,25.98,383.27,26.9,379.85z M21.75,403.03c0.62-3.49,3.95-5.82,7.44-5.2
				c3.49,0.62,5.83,3.94,5.21,7.43c-0.62,3.49-3.95,5.82-7.44,5.2C23.47,409.85,21.14,406.52,21.75,403.03z M25.61,420.74
				c3.53,0.31,6.15,3.42,5.84,6.95c-0.31,3.53-3.42,6.14-6.96,5.83s-6.15-3.42-5.84-6.95C18.96,423.04,22.08,420.43,25.61,420.74z
				 M24.04,443.87c3.55,0,6.42,2.87,6.42,6.41c0,3.54-2.88,6.41-6.42,6.41c-3.55,0-6.42-2.87-6.42-6.41
				C17.61,446.74,20.49,443.87,24.04,443.87z M18.65,474c-0.31-3.53,2.3-6.64,5.84-6.95c3.53-0.31,6.65,2.3,6.96,5.83
				c0.31,3.53-2.3,6.64-5.84,6.95C22.08,480.14,18.96,477.53,18.65,474z M21.75,497.54c-0.62-3.49,1.72-6.82,5.21-7.43
				c3.49-0.62,6.82,1.71,7.44,5.2c0.62,3.49-1.72,6.82-5.21,7.43C25.7,503.36,22.37,501.03,21.75,497.54z M26.9,520.72
				c-0.92-3.42,1.12-6.94,4.54-7.86c3.43-0.92,6.95,1.11,7.87,4.54c0.92,3.42-1.12,6.94-4.54,7.86
				C31.34,526.17,27.82,524.14,26.9,520.72z M34.05,543.36c-1.21-3.33,0.51-7.01,3.84-8.22c3.33-1.21,7.02,0.51,8.23,3.83
				c1.21,3.33-0.51,7.01-3.84,8.22C38.95,548.4,35.26,546.69,34.05,543.36z M43.14,565.29c-1.5-3.21-0.11-7.03,3.11-8.52
				c3.21-1.5,7.04-0.11,8.53,3.1c1.5,3.21,0.11,7.03-3.11,8.52C48.46,569.89,44.64,568.5,43.14,565.29z M62.89,588.7
				c-3.07,1.77-7,0.72-8.77-2.35c-1.77-3.07-0.72-6.99,2.35-8.76c3.07-1.77,7-0.72,8.77,2.35C67.02,583,65.96,586.93,62.89,588.7z
				 M75.84,607.95c-2.91,2.03-6.91,1.33-8.94-1.58c-2.03-2.9-1.33-6.9,1.58-8.93c2.91-2.03,6.91-1.33,8.94,1.58
				C79.45,601.92,78.74,605.92,75.84,607.95z M90.41,626c-2.72,2.28-6.77,1.92-9.05-0.79c-2.28-2.71-1.93-6.76,0.79-9.04
				s6.77-1.92,9.05,0.79C93.48,619.68,93.13,623.72,90.41,626z M106.5,642.71c-2.51,2.5-6.57,2.5-9.08,0c-2.51-2.5-2.51-6.57,0-9.07
				c2.51-2.5,6.57-2.5,9.08,0C109.01,636.15,109.01,640.21,106.5,642.71z M123.99,657.96c-2.28,2.71-6.33,3.07-9.05,0.79
				c-2.72-2.28-3.07-6.32-0.79-9.04c2.28-2.71,6.33-3.07,9.05-0.79C125.92,651.2,126.27,655.25,123.99,657.96z M142.75,671.63
				c-2.03,2.9-6.04,3.61-8.94,1.58c-2.91-2.03-3.61-6.03-1.58-8.93c2.03-2.9,6.04-3.61,8.94-1.58
				C144.08,664.73,144.78,668.73,142.75,671.63z M162.62,683.61c-1.77,3.07-5.7,4.12-8.77,2.35c-3.07-1.77-4.12-5.69-2.35-8.76
				c1.77-3.07,5.7-4.12,8.77-2.35C163.35,676.62,164.4,680.54,162.62,683.61z M183.47,693.82c-1.5,3.21-5.32,4.6-8.53,3.1
				c-3.21-1.5-4.61-5.31-3.11-8.52c1.5-3.21,5.32-4.6,8.53-3.1C183.58,686.79,184.97,690.61,183.47,693.82z M205.13,702.17
				c-1.21,3.33-4.9,5.05-8.23,3.83c-3.33-1.21-5.05-4.89-3.84-8.22c1.21-3.33,4.9-5.05,8.23-3.83
				C204.62,695.16,206.34,698.84,205.13,702.17z M227.43,708.61c-0.92,3.42-4.44,5.45-7.87,4.54c-3.43-0.92-5.46-4.43-4.54-7.86
				c0.92-3.42,4.44-5.45,7.87-4.54C226.32,701.67,228.35,705.19,227.43,708.61z M250.21,713.08c-0.62,3.49-3.95,5.82-7.44,5.2
				c-3.49-0.62-5.83-3.94-5.21-7.43c0.62-3.49,3.95-5.82,7.44-5.2C248.5,706.26,250.83,709.59,250.21,713.08z M266.34,721.38
				c-3.53-0.31-6.15-3.42-5.84-6.95c0.31-3.53,3.42-6.14,6.96-5.83s6.15,3.42,5.84,6.95C272.99,719.08,269.87,721.69,266.34,721.38z
				 M290.09,722.42c-3.55,0-6.42-2.87-6.42-6.41c0-3.54,2.88-6.41,6.42-6.41s6.42,2.87,6.42,6.41
				C296.51,719.54,293.63,722.42,290.09,722.42z M313.84,721.38c-3.53,0.31-6.65-2.3-6.96-5.83c-0.31-3.53,2.3-6.64,5.84-6.95
				c3.53-0.31,6.65,2.3,6.96,5.83C319.98,717.96,317.37,721.07,313.84,721.38z M337.4,718.28c-3.49,0.62-6.82-1.71-7.44-5.2
				c-0.62-3.49,1.72-6.82,5.21-7.43c3.49-0.62,6.82,1.71,7.44,5.2C343.23,714.34,340.89,717.67,337.4,718.28z M360.61,713.14
				c-3.43,0.92-6.95-1.11-7.87-4.54c-0.92-3.42,1.12-6.94,4.54-7.86c3.43-0.92,6.95,1.11,7.87,4.54
				C366.07,708.71,364.03,712.23,360.61,713.14z M383.28,706.01c-3.33,1.21-7.02-0.5-8.23-3.83c-1.21-3.33,0.51-7.01,3.84-8.22
				c3.33-1.21,7.02,0.51,8.23,3.83C388.33,701.11,386.61,704.79,383.28,706.01z M405.24,696.92c-3.21,1.5-7.04,0.11-8.53-3.1
				c-1.5-3.21-0.11-7.03,3.11-8.52c3.21-1.5,7.04-0.11,8.53,3.1C409.84,691.61,408.45,695.42,405.24,696.92z M426.32,685.96
				c-3.07,1.77-7,0.72-8.77-2.35c-1.77-3.07-0.72-6.99,2.35-8.76s7-0.72,8.77,2.35C430.45,680.26,429.4,684.19,426.32,685.96z
				 M446.37,673.2c-2.91,2.03-6.91,1.33-8.94-1.58c-2.03-2.9-1.33-6.9,1.58-8.93c2.91-2.03,6.91-1.33,8.94,1.58
				C449.98,667.17,449.28,671.17,446.37,673.2z M465.23,658.75c-2.72,2.28-6.77,1.92-9.05-0.79c-2.28-2.71-1.93-6.76,0.79-9.04
				c2.72-2.28,6.77-1.92,9.05,0.79S467.95,656.47,465.23,658.75z M482.75,642.71c-2.51,2.5-6.57,2.5-9.08,0
				c-2.51-2.5-2.51-6.57,0-9.07c2.51-2.5,6.57-2.5,9.08,0C485.26,636.14,485.26,640.21,482.75,642.71z M290.09,706.11
				c-141.24,0-256.14-114.76-256.14-255.82s114.9-255.82,256.14-255.82s256.14,114.76,256.14,255.82S431.32,706.11,290.09,706.11z
				 M498.81,625.21c-2.28,2.71-6.33,3.07-9.05,0.79c-2.72-2.28-3.07-6.32-0.79-9.04c2.28-2.71,6.33-3.07,9.05-0.79
				C500.74,618.45,501.09,622.49,498.81,625.21z M513.28,606.37c-2.03,2.9-6.04,3.61-8.94,1.58c-2.91-2.03-3.61-6.03-1.58-8.93
				c2.03-2.9,6.04-3.61,8.94-1.58C514.61,599.47,515.32,603.47,513.28,606.37z M526.05,586.35c-1.77,3.07-5.7,4.12-8.77,2.35
				c-3.07-1.77-4.12-5.69-2.35-8.76c1.77-3.07,5.7-4.12,8.77-2.35C526.78,579.36,527.83,583.28,526.05,586.35z M537.03,565.29
				c-1.5,3.21-5.32,4.6-8.53,3.1c-3.21-1.5-4.61-5.31-3.11-8.52c1.5-3.21,5.32-4.6,8.53-3.1
				C537.14,558.27,538.53,562.08,537.03,565.29z M546.13,543.36c-1.21,3.33-4.9,5.05-8.23,3.83c-3.33-1.21-5.05-4.89-3.84-8.22
				c1.21-3.33,4.9-5.05,8.23-3.83C545.62,536.35,547.34,540.03,546.13,543.36z M553.27,520.72c-0.92,3.42-4.44,5.45-7.87,4.54
				c-3.43-0.92-5.46-4.43-4.54-7.86c0.92-3.42,4.44-5.45,7.87-4.54C552.16,513.78,554.19,517.3,553.27,520.72z M558.42,497.54
				c-0.62,3.49-3.95,5.82-7.44,5.2c-3.49-0.62-5.83-3.94-5.21-7.43c0.62-3.49,3.95-5.82,7.44-5.2
				C556.7,490.72,559.04,494.05,558.42,497.54z M554.56,479.83c-3.53-0.31-6.15-3.42-5.84-6.95c0.31-3.53,3.42-6.14,6.96-5.83
				c3.53,0.31,6.15,3.42,5.84,6.95C561.21,477.53,558.1,480.14,554.56,479.83z M556.14,456.7c-3.55,0-6.42-2.87-6.42-6.41
				c0-3.54,2.88-6.41,6.42-6.41s6.42,2.87,6.42,6.41C562.56,453.83,559.68,456.7,556.14,456.7z M561.52,426.57
				c0.31,3.53-2.3,6.64-5.84,6.95c-3.53,0.31-6.65-2.3-6.96-5.83c-0.31-3.53,2.3-6.64,5.84-6.95
				C558.1,420.43,561.21,423.04,561.52,426.57z M558.42,403.03c0.62,3.49-1.72,6.82-5.21,7.43c-3.49,0.62-6.82-1.71-7.44-5.2
				c-0.62-3.49,1.72-6.82,5.21-7.43C554.47,397.21,557.8,399.54,558.42,403.03z M553.27,379.85c0.92,3.42-1.11,6.94-4.54,7.86
				c-3.43,0.92-6.95-1.11-7.87-4.54c-0.92-3.42,1.12-6.94,4.54-7.86C548.83,374.4,552.36,376.43,553.27,379.85z M546.13,357.21
				c1.21,3.33-0.51,7.01-3.84,8.22c-3.33,1.21-7.02-0.5-8.23-3.83c-1.21-3.33,0.51-7.01,3.84-8.22
				C541.23,352.16,544.91,353.88,546.13,357.21z M537.03,335.28c1.5,3.21,0.11,7.03-3.11,8.52c-3.21,1.5-7.04,0.11-8.53-3.1
				c-1.5-3.21-0.11-7.03,3.11-8.52C531.71,330.68,535.53,332.07,537.03,335.28z M517.28,311.87c3.07-1.77,7-0.72,8.77,2.35
				c1.77,3.07,0.72,6.99-2.35,8.76c-3.07,1.77-7,0.72-8.77-2.35C513.16,317.56,514.21,313.64,517.28,311.87z M504.34,292.62
				c2.91-2.03,6.91-1.33,8.94,1.58c2.03,2.9,1.33,6.9-1.58,8.93c-2.91,2.03-6.91,1.33-8.94-1.58
				C500.73,298.65,501.43,294.65,504.34,292.62z M489.76,274.57c2.72-2.28,6.77-1.92,9.05,0.79c2.28,2.71,1.93,6.76-0.79,9.04
				c-2.72,2.28-6.77,1.92-9.05-0.79C486.69,280.89,487.05,276.85,489.76,274.57z"/>
		</g>
		<g>
			<path style="fill:#D1E7DD;" d="M290.09,198.37c-139.08,0-252.23,113.01-252.23,251.91S151.01,702.2,290.09,702.2
				s252.23-113.01,252.23-251.91S429.16,198.37,290.09,198.37z M536.08,496.2l-12.4,8.95l7.11,13.53l-13.19,7.75l5.82,14.13
				l-13.85,6.5l4.48,14.61l-14.39,5.19l3.11,14.96l-14.81,3.84l1.72,15.18l-15.1,2.47l0.32,15.27l-15.26,1.08l-1.08,15.24
				l-15.29-0.32l-2.47,15.08l-15.2-1.72l-3.85,14.79l-14.98-3.11l-5.19,14.37l-14.63-4.48l-6.5,13.83l-14.15-5.81l-7.76,13.17
				l-13.55-7.11l-8.96,12.39l-12.83-8.33l-10.07,11.5l-12-9.48l-11.08,10.53L279,689.67l-12,9.48l-10.07-11.5l-12.83,8.33
				l-8.96-12.39l-13.55,7.11l-7.76-13.17l-14.15,5.81l-6.5-13.83l-14.63,4.48l-5.19-14.37l-14.98,3.11l-3.84-14.79l-15.2,1.72
				l-2.47-15.08l-15.29,0.32l-1.08-15.24l-15.26-1.08l0.32-15.27l-15.1-2.47l1.72-15.18l-14.81-3.84l3.11-14.96l-14.39-5.19
				l4.48-14.61l-13.85-6.5l5.82-14.13l-13.18-7.75l7.11-13.53l-12.4-8.94l8.34-12.81l-11.52-10.05l9.49-11.99l-10.54-11.07
				l10.54-11.07l-9.49-11.99l11.52-10.05l-8.34-12.81l12.4-8.95l-7.11-13.53l13.18-7.75l-5.82-14.13l13.85-6.5l-4.48-14.61
				l14.39-5.19l-3.11-14.96l14.81-3.84l-1.72-15.18l15.1-2.47l-0.32-15.27l15.26-1.08l1.08-15.24l15.29,0.32l2.47-15.08l15.2,1.72
				l3.84-14.79l14.98,3.11l5.19-14.37l14.63,4.48l6.5-13.83l14.15,5.81l7.76-13.17l13.54,7.11l8.96-12.39l12.83,8.33l10.07-11.5
				l12,9.48l11.08-10.53l11.08,10.53l12-9.48l10.07,11.5l12.82-8.33l8.96,12.39l13.55-7.11l7.76,13.17l14.15-5.81l6.5,13.83
				l14.63-4.48l5.19,14.37l14.98-3.11l3.84,14.79l15.2-1.72L443.3,266l15.29-0.32l1.08,15.24l15.26,1.08l-0.32,15.27l15.1,2.47
				l-1.72,15.18l14.81,3.84l-3.11,14.96l14.39,5.19l-4.48,14.61l13.85,6.5l-5.82,14.13l13.18,7.75l-7.11,13.53l12.4,8.94
				l-8.34,12.81l11.52,10.05l-9.49,11.99l10.54,11.07l-10.54,11.07l9.49,11.98l-11.52,10.06L536.08,496.2z"/>
		</g>
		<g>
			<path style="fill:#D1E7DD;" d="M524.59,461.12l10.32-10.83l-10.32-10.83l9.29-11.73l-11.27-9.84l8.16-12.53l-12.13-8.75
				l6.96-13.23l-12.9-7.58l5.69-13.82l-13.55-6.36l4.39-14.29l-14.08-5.07l3.05-14.64l-14.49-3.76l1.68-14.85l-14.77-2.41
				l0.31-14.95L456,284.58l-1.05-14.91l-14.97,0.32l-2.41-14.75l-14.87,1.68l-3.76-14.47l-14.66,3.04l-5.08-14.06l-14.31,4.38
				l-6.36-13.53l-13.84,5.69l-7.59-12.88l-13.25,6.95l-8.76-12.12l-12.55,8.15l-9.85-11.26l-11.74,9.27l-10.85-10.31l-10.85,10.31
				l-11.74-9.27l-9.85,11.26l-12.55-8.15l-8.76,12.12l-13.25-6.95l-7.59,12.88l-13.84-5.69l-6.36,13.53l-14.31-4.38l-5.08,14.06
				l-14.66-3.04l-3.76,14.47l-14.87-1.68l-2.42,14.75l-14.97-0.32l-1.05,14.91l-14.93,1.05l0.32,14.95l-14.77,2.41l1.68,14.85
				l-14.49,3.76l3.04,14.64l-14.08,5.07l4.38,14.29l-13.55,6.36l5.69,13.82l-12.9,7.58l6.96,13.23l-12.13,8.75l8.16,12.53
				l-11.27,9.84l9.29,11.73l-10.32,10.83l10.32,10.83l-9.29,11.73l11.27,9.84l-8.16,12.53l12.13,8.75l-6.96,13.23l12.9,7.58
				l-5.69,13.82l13.55,6.36l-4.39,14.29l14.08,5.07l-3.04,14.64l14.49,3.76l-1.68,14.85l14.77,2.41l-0.31,14.95l14.93,1.05
				l1.05,14.91l14.97-0.32l2.42,14.75l14.87-1.68l3.76,14.47l14.66-3.04l5.08,14.06l14.31-4.38l6.36,13.53l13.84-5.69l7.59,12.88
				l13.25-6.95l8.76,12.12l12.55-8.15l9.85,11.26l11.74-9.27l10.85,10.31l10.85-10.31l11.74,9.27l9.85-11.26l12.55,8.15l8.76-12.12
				l13.25,6.95l7.59-12.88l13.84,5.69l6.36-13.53l14.31,4.38l5.08-14.06l14.66,3.04l3.76-14.47l14.87,1.68l2.42-14.75l14.97,0.32
				l1.05-14.91l14.93-1.05l-0.32-14.95l14.77-2.41l-1.69-14.85l14.49-3.76l-3.04-14.64l14.08-5.07l-4.39-14.29l13.55-6.36
				l-5.69-13.82l12.9-7.58l-6.96-13.23l12.13-8.75l-8.16-12.53l11.27-9.84L524.59,461.12z M290.09,682.64
				c-128.28,0-232.65-104.23-232.65-232.35s104.36-232.35,232.65-232.35c128.28,0,232.65,104.23,232.65,232.35
				S418.37,682.64,290.09,682.64z"/>
		</g>
		<g>
			<path style="fill:#D1E7DD;" d="M290.09,221.84c-126.12,0-228.73,102.48-228.73,228.44c0,125.96,102.61,228.44,228.73,228.44
				c126.12,0,228.73-102.48,228.73-228.44C518.82,324.32,416.21,221.84,290.09,221.84z M146.43,596.52c1.62,1.59,3.27,3.16,4.95,4.7
				l-13.1,14.53c-1.93-1.77-3.82-3.57-5.69-5.4L146.43,596.52z M154.29,603.83c1.7,1.51,3.42,2.99,5.18,4.44l-12.32,15.19
				c-2.02-1.66-4-3.38-5.95-5.11L154.29,603.83z M162.52,610.73c1.78,1.41,3.58,2.8,5.41,4.16l-11.5,15.81
				c-2.1-1.56-4.17-3.15-6.22-4.78L162.52,610.73z M171.09,617.2c1.85,1.32,3.73,2.6,5.62,3.86l-10.66,16.39
				c-2.18-1.45-4.34-2.92-6.47-4.44L171.09,617.2z M179.99,623.2c1.92,1.22,3.86,2.4,5.82,3.56l-9.79,16.93
				c-2.25-1.33-4.49-2.69-6.69-4.1L179.99,623.2z M189.2,628.73c1.98,1.12,3.98,2.21,6,3.26l-8.89,17.42
				c-2.32-1.21-4.62-2.46-6.9-3.75L189.2,628.73z M198.68,633.77c2.03,1.02,4.08,2,6.16,2.95l-7.96,17.87
				c-2.38-1.09-4.74-2.23-7.08-3.39L198.68,633.77z M208.41,638.31c2.08,0.91,4.18,1.79,6.3,2.63l-7.02,18.26
				c-2.44-0.96-4.85-1.98-7.25-3.03L208.41,638.31z M218.37,642.34c2.13,0.8,4.27,1.56,6.43,2.29l-6.05,18.6
				c-2.49-0.83-4.95-1.71-7.4-2.63L218.37,642.34z M228.53,645.84c2.17,0.68,4.35,1.33,6.55,1.94l-5.07,18.89
				c-2.53-0.7-5.04-1.44-7.53-2.23L228.53,645.84z M238.86,648.8c2.2,0.57,4.42,1.08,6.64,1.58l-4.07,19.13
				c-2.56-0.57-5.11-1.16-7.64-1.82L238.86,648.8z M249.33,651.2c2.23,0.45,4.47,0.85,6.72,1.23l-3.06,19.32
				c-2.59-0.43-5.17-0.89-7.73-1.41L249.33,651.2z M259.92,653.04c2.25,0.33,4.5,0.62,6.77,0.88l-2.05,19.45
				c-2.61-0.29-5.21-0.63-7.79-1.01L259.92,653.04z M270.58,654.33c2.26,0.21,4.53,0.39,6.81,0.53l-1.02,19.53
				c-2.62-0.16-5.23-0.36-7.83-0.61L270.58,654.33z M281.3,655.06c2.27,0.1,4.54,0.15,6.83,0.18v19.56
				c-2.63-0.02-5.25-0.09-7.85-0.2L281.3,655.06z M292.05,655.24c2.28-0.02,4.56-0.08,6.83-0.18l1.02,19.53
				c-2.61,0.11-5.22,0.18-7.85,0.2V655.24z M302.78,654.86c2.28-0.14,4.55-0.31,6.81-0.53l2.05,19.45c-2.6,0.25-5.21,0.45-7.83,0.61
				L302.78,654.86z M313.49,653.92c2.27-0.26,4.53-0.55,6.77-0.88l3.06,19.32c-2.58,0.38-5.18,0.72-7.79,1.01L313.49,653.92z
				 M324.13,652.43c2.25-0.38,4.49-0.78,6.72-1.23l4.07,19.13c-2.56,0.52-5.14,0.98-7.73,1.41L324.13,652.43z M334.67,650.38
				c2.23-0.49,4.45-1.01,6.64-1.58l5.07,18.89c-2.53,0.65-5.08,1.25-7.64,1.82L334.67,650.38z M345.1,647.77
				c2.2-0.61,4.38-1.25,6.55-1.94l6.05,18.6c-2.49,0.79-5,1.53-7.53,2.23L345.1,647.77z M355.37,644.63
				c2.16-0.73,4.3-1.49,6.43-2.29l7.02,18.26c-2.45,0.92-4.91,1.8-7.4,2.63L355.37,644.63z M365.46,640.94
				c2.12-0.84,4.22-1.72,6.3-2.63l7.96,17.86c-2.4,1.04-4.81,2.06-7.25,3.03L365.46,640.94z M375.34,636.72
				c2.07-0.95,4.12-1.94,6.16-2.95l8.89,17.42c-2.34,1.17-4.7,2.3-7.08,3.39L375.34,636.72z M384.98,631.99
				c2.02-1.06,4.02-2.14,6-3.26l9.79,16.93c-2.27,1.29-4.57,2.54-6.9,3.75L384.98,631.99z M394.36,626.76
				c1.96-1.16,3.9-2.34,5.82-3.56l10.66,16.4c-2.2,1.41-4.44,2.77-6.69,4.1L394.36,626.76z M403.46,621.06
				c1.9-1.26,3.77-2.54,5.62-3.86l11.5,15.81c-2.13,1.52-4.29,3-6.47,4.44L403.46,621.06z M412.25,614.89
				c1.83-1.36,3.63-2.74,5.41-4.16l12.32,15.19c-2.05,1.63-4.12,3.22-6.22,4.78L412.25,614.89z M420.7,608.27
				c1.75-1.45,3.47-2.93,5.18-4.44l13.09,14.53c-1.96,1.73-3.94,3.44-5.95,5.11L420.7,608.27z M428.79,601.22
				c1.68-1.54,3.32-3.1,4.95-4.7l13.84,13.82c-1.87,1.83-3.76,3.63-5.69,5.4L428.79,601.22z M290.09,651.35
				c-111.18,0-201.32-90.02-201.32-201.06s90.13-201.06,201.32-201.06S491.4,339.24,491.4,450.28S401.27,651.35,290.09,651.35z
				 M131.9,319.83l-15.21-12.3c1.67-2.02,3.38-3.99,5.11-5.95l14.54,13.08C134.84,316.36,133.35,318.08,131.9,319.83z
				 M129.44,322.87c-1.42,1.78-2.81,3.58-4.16,5.4l-15.83-11.49c1.56-2.1,3.16-4.17,4.79-6.21L129.44,322.87z M122.97,331.43
				c-1.32,1.85-2.61,3.72-3.87,5.62l-16.42-10.65c1.45-2.18,2.93-4.34,4.45-6.46L122.97,331.43z M116.96,340.32
				c-1.22,1.91-2.41,3.86-3.57,5.81l-16.95-9.78c1.33-2.25,2.69-4.48,4.1-6.69L116.96,340.32z M111.42,349.52
				c-1.12,1.98-2.21,3.97-3.27,5.99l-17.44-8.88c1.21-2.32,2.46-4.62,3.76-6.89L111.42,349.52z M106.37,358.99
				c-1.02,2.03-2,4.08-2.95,6.15l-17.89-7.95c1.09-2.38,2.23-4.74,3.4-7.07L106.37,358.99z M101.83,368.71
				c-0.91,2.08-1.79,4.18-2.63,6.29l-18.28-7.01c0.96-2.44,1.98-4.84,3.03-7.24L101.83,368.71z M97.79,378.66
				c-0.8,2.13-1.56,4.27-2.29,6.43l-18.62-6.04c0.83-2.48,1.72-4.95,2.63-7.39L97.79,378.66z M94.29,388.8
				c-0.68,2.16-1.33,4.35-1.94,6.54l-18.91-5.06c0.7-2.52,1.44-5.03,2.23-7.52L94.29,388.8z M91.33,399.12
				c-0.57,2.2-1.08,4.41-1.58,6.64l-19.15-4.07c0.57-2.56,1.17-5.11,1.82-7.63L91.33,399.12z M88.93,409.58
				c-0.45,2.22-0.86,4.46-1.23,6.71l-19.34-3.06c0.43-2.59,0.9-5.16,1.42-7.72L88.93,409.58z M87.08,420.15
				c-0.33,2.24-0.62,4.5-0.88,6.76l-19.47-2.04c0.3-2.61,0.63-5.2,1.01-7.78L87.08,420.15z M85.79,430.8
				c-0.21,2.26-0.39,4.52-0.53,6.8l-19.55-1.02c0.16-2.62,0.36-5.23,0.61-7.82L85.79,430.8z M85.06,441.51
				c-0.1,2.26-0.15,4.54-0.18,6.82H65.3c0.02-2.62,0.09-5.24,0.2-7.84L85.06,441.51z M84.88,452.24c0.02,2.28,0.08,4.55,0.18,6.82
				l-19.55,1.02c-0.11-2.6-0.18-5.22-0.2-7.84H84.88z M85.26,462.96c0.14,2.28,0.31,4.54,0.53,6.8l-19.47,2.04
				c-0.25-2.59-0.45-5.2-0.61-7.82L85.26,462.96z M86.2,473.65c0.26,2.27,0.55,4.52,0.88,6.76l-19.34,3.06
				c-0.38-2.58-0.72-5.17-1.01-7.78L86.2,473.65z M87.69,484.28c0.38,2.25,0.78,4.49,1.23,6.71l-19.16,4.07
				c-0.52-2.56-0.98-5.13-1.42-7.72L87.69,484.28z M89.75,494.81c0.5,2.22,1.01,4.44,1.58,6.64l-18.91,5.06
				c-0.65-2.53-1.25-5.07-1.82-7.63L89.75,494.81z M92.35,505.23c0.61,2.19,1.26,4.38,1.94,6.54l-18.62,6.04
				c-0.79-2.49-1.53-5-2.23-7.52L92.35,505.23z M95.5,515.49c0.73,2.16,1.49,4.3,2.29,6.43l-18.28,7.01
				c-0.92-2.44-1.8-4.91-2.63-7.39L95.5,515.49z M99.19,525.57c0.84,2.12,1.72,4.21,2.63,6.29l-17.89,7.95
				c-1.05-2.39-2.07-4.8-3.03-7.24L99.19,525.57z M103.42,535.43c0.95,2.07,1.94,4.12,2.95,6.15l-17.44,8.88
				c-1.17-2.34-2.31-4.69-3.4-7.07L103.42,535.43z M108.16,545.06c1.06,2.02,2.14,4.01,3.27,5.99l-16.95,9.78
				c-1.29-2.27-2.54-4.57-3.76-6.89L108.16,545.06z M113.39,554.43c1.16,1.96,2.35,3.9,3.57,5.81l-16.42,10.65
				c-1.41-2.2-2.77-4.43-4.1-6.69L113.39,554.43z M119.1,563.52c1.26,1.89,2.55,3.77,3.87,5.62l-15.83,11.49
				c-1.52-2.12-3-4.28-4.45-6.46L119.1,563.52z M125.28,572.29c1.36,1.82,2.75,3.62,4.16,5.4L114.23,590
				c-1.63-2.04-3.23-4.11-4.79-6.21L125.28,572.29z M131.9,580.74c1.45,1.75,2.94,3.47,4.44,5.17l-14.54,13.08
				c-1.73-1.96-3.45-3.93-5.11-5.95L131.9,580.74z M433.74,304.05c-1.62-1.59-3.27-3.16-4.95-4.7l13.1-14.53
				c1.93,1.77,3.82,3.57,5.69,5.4L433.74,304.05z M425.88,296.74c-1.7-1.5-3.42-2.99-5.18-4.44l12.32-15.19
				c2.02,1.66,4,3.38,5.95,5.11L425.88,296.74z M417.66,289.84c-1.78-1.41-3.58-2.8-5.41-4.16l11.5-15.81
				c2.1,1.56,4.17,3.15,6.22,4.78L417.66,289.84z M409.09,283.37c-1.85-1.32-3.73-2.6-5.62-3.86l10.66-16.39
				c2.18,1.45,4.34,2.92,6.47,4.44L409.09,283.37z M400.18,277.37c-1.92-1.22-3.86-2.4-5.82-3.56l9.79-16.93
				c2.25,1.33,4.49,2.69,6.69,4.1L400.18,277.37z M390.98,271.84c-1.98-1.12-3.98-2.21-6-3.26l8.89-17.42
				c2.32,1.21,4.62,2.46,6.9,3.75L390.98,271.84z M381.5,266.8c-2.03-1.02-4.08-2-6.16-2.95l7.96-17.87
				c2.38,1.09,4.74,2.22,7.08,3.39L381.5,266.8z M371.76,262.26c-2.08-0.91-4.18-1.79-6.3-2.63l7.02-18.26
				c2.44,0.96,4.85,1.98,7.25,3.03L371.76,262.26z M361.8,258.23c-2.13-0.8-4.27-1.56-6.43-2.29l6.05-18.6
				c2.49,0.83,4.95,1.71,7.4,2.63L361.8,258.23z M351.65,254.73c-2.17-0.68-4.35-1.33-6.55-1.94l5.07-18.89
				c2.53,0.7,5.04,1.44,7.53,2.23L351.65,254.73z M341.32,251.77c-2.2-0.57-4.42-1.08-6.65-1.58l4.07-19.13
				c2.56,0.57,5.11,1.16,7.64,1.82L341.32,251.77z M330.84,249.37c-2.23-0.45-4.47-0.85-6.72-1.23l3.06-19.32
				c2.59,0.43,5.17,0.89,7.73,1.41L330.84,249.37z M320.26,247.53c-2.25-0.33-4.5-0.62-6.77-0.88l2.05-19.45
				c2.61,0.29,5.21,0.63,7.79,1.01L320.26,247.53z M309.59,246.24c-2.26-0.21-4.53-0.39-6.81-0.53l1.02-19.53
				c2.62,0.16,5.23,0.36,7.83,0.61L309.59,246.24z M298.87,245.51c-2.27-0.1-4.54-0.15-6.83-0.18v-19.56
				c2.63,0.02,5.25,0.09,7.85,0.2L298.87,245.51z M288.13,245.33c-2.28,0.02-4.56,0.08-6.83,0.18l-1.02-19.53
				c2.61-0.11,5.22-0.18,7.85-0.2V245.33z M277.39,245.71c-2.28,0.14-4.55,0.31-6.81,0.53l-2.05-19.45c2.6-0.25,5.21-0.45,7.83-0.61
				L277.39,245.71z M266.69,246.65c-2.27,0.26-4.53,0.55-6.77,0.88l-3.06-19.32c2.58-0.38,5.18-0.72,7.79-1.01L266.69,246.65z
				 M256.05,248.14c-2.25,0.38-4.49,0.78-6.72,1.23l-4.07-19.13c2.56-0.52,5.14-0.98,7.73-1.41L256.05,248.14z M245.5,250.19
				c-2.23,0.49-4.45,1.01-6.64,1.58l-5.07-18.89c2.53-0.65,5.08-1.25,7.64-1.82L245.5,250.19z M235.08,252.8
				c-2.2,0.61-4.38,1.25-6.55,1.94l-6.05-18.6c2.49-0.79,5-1.53,7.53-2.23L235.08,252.8z M224.8,255.94
				c-2.16,0.73-4.3,1.49-6.43,2.29l-7.02-18.26c2.45-0.92,4.91-1.8,7.4-2.63L224.8,255.94z M214.71,259.63
				c-2.12,0.84-4.22,1.72-6.3,2.63l-7.96-17.86c2.4-1.04,4.81-2.06,7.25-3.03L214.71,259.63z M204.83,263.85
				c-2.07,0.95-4.12,1.94-6.16,2.95l-8.89-17.42c2.34-1.17,4.7-2.3,7.08-3.39L204.83,263.85z M195.19,268.58
				c-2.02,1.06-4.02,2.14-6,3.26l-9.79-16.93c2.27-1.29,4.57-2.54,6.9-3.75L195.19,268.58z M185.81,273.81
				c-1.96,1.16-3.9,2.34-5.82,3.56l-10.66-16.4c2.2-1.41,4.44-2.77,6.69-4.1L185.81,273.81z M176.71,279.51
				c-1.9,1.26-3.77,2.54-5.62,3.86l-11.5-15.81c2.13-1.52,4.29-3,6.47-4.44L176.71,279.51z M167.93,285.68
				c-1.83,1.36-3.63,2.74-5.41,4.16l-12.32-15.19c2.05-1.63,4.12-3.22,6.22-4.78L167.93,285.68z M159.47,292.3
				c-1.75,1.45-3.47,2.93-5.18,4.44l-13.09-14.53c1.96-1.73,3.94-3.44,5.95-5.11L159.47,292.3z M151.38,299.35
				c-1.68,1.54-3.32,3.1-4.95,4.7l-13.84-13.82c1.87-1.83,3.76-3.63,5.69-5.4L151.38,299.35z M448.27,580.74l15.21,12.3
				c-1.67,2.02-3.38,3.99-5.11,5.95l-14.54-13.08C445.34,584.21,446.82,582.49,448.27,580.74z M450.73,577.7
				c1.42-1.78,2.81-3.58,4.16-5.4l15.83,11.49c-1.56,2.1-3.16,4.17-4.79,6.21L450.73,577.7z M457.21,569.14
				c1.32-1.85,2.61-3.72,3.87-5.62l16.42,10.65c-1.45,2.18-2.93,4.34-4.45,6.46L457.21,569.14z M463.22,560.24
				c1.22-1.91,2.41-3.86,3.57-5.81l16.95,9.78c-1.33,2.25-2.69,4.48-4.1,6.69L463.22,560.24z M468.75,551.05
				c1.12-1.98,2.21-3.97,3.27-5.99l17.44,8.88c-1.21,2.32-2.46,4.62-3.76,6.89L468.75,551.05z M473.8,541.58
				c1.02-2.03,2-4.08,2.95-6.15l17.89,7.95c-1.09,2.38-2.23,4.74-3.4,7.07L473.8,541.58z M478.35,531.86
				c0.91-2.08,1.79-4.18,2.63-6.29l18.28,7.01c-0.96,2.44-1.98,4.84-3.03,7.24L478.35,531.86z M482.38,521.91
				c0.8-2.13,1.56-4.27,2.29-6.43l18.62,6.04c-0.83,2.48-1.72,4.95-2.63,7.39L482.38,521.91z M485.88,511.77
				c0.68-2.16,1.33-4.35,1.94-6.54l18.91,5.06c-0.7,2.53-1.44,5.03-2.23,7.52L485.88,511.77z M488.85,501.45
				c0.57-2.2,1.09-4.41,1.58-6.64l19.15,4.07c-0.57,2.56-1.17,5.11-1.82,7.63L488.85,501.45z M491.25,490.99
				c0.45-2.22,0.85-4.46,1.23-6.71l19.34,3.06c-0.43,2.59-0.9,5.16-1.42,7.72L491.25,490.99z M493.1,480.42
				c0.33-2.24,0.62-4.5,0.88-6.76l19.47,2.04c-0.3,2.61-0.63,5.2-1.01,7.78L493.1,480.42z M494.39,469.76
				c0.21-2.26,0.39-4.52,0.53-6.8l19.55,1.02c-0.16,2.62-0.36,5.23-0.61,7.82L494.39,469.76z M495.12,459.06
				c0.1-2.26,0.15-4.54,0.18-6.82h19.58c-0.02,2.62-0.09,5.24-0.2,7.84L495.12,459.06z M495.29,448.33
				c-0.02-2.28-0.08-4.55-0.18-6.82l19.55-1.02c0.11,2.6,0.18,5.22,0.2,7.84H495.29z M494.91,437.61c-0.14-2.28-0.31-4.54-0.53-6.8
				l19.47-2.04c0.25,2.59,0.45,5.2,0.61,7.82L494.91,437.61z M493.98,426.92c-0.26-2.27-0.55-4.52-0.88-6.76l19.34-3.06
				c0.38,2.58,0.72,5.17,1.01,7.78L493.98,426.92z M492.48,416.29c-0.38-2.25-0.78-4.49-1.23-6.71l19.16-4.07
				c0.52,2.56,0.98,5.13,1.42,7.72L492.48,416.29z M490.43,405.75c-0.5-2.22-1.01-4.44-1.58-6.64l18.91-5.06
				c0.65,2.53,1.25,5.07,1.82,7.63L490.43,405.75z M487.82,395.34c-0.61-2.19-1.26-4.38-1.94-6.54l18.62-6.04
				c0.79,2.49,1.53,5,2.23,7.52L487.82,395.34z M484.67,385.08c-0.73-2.16-1.5-4.3-2.29-6.43l18.28-7.01
				c0.92,2.44,1.8,4.91,2.63,7.39L484.67,385.08z M480.98,375c-0.84-2.12-1.72-4.21-2.63-6.29l17.89-7.95
				c1.05,2.39,2.07,4.8,3.03,7.24L480.98,375z M476.75,365.14c-0.95-2.07-1.94-4.12-2.95-6.15l17.44-8.88
				c1.17,2.34,2.31,4.69,3.4,7.07L476.75,365.14z M472.02,355.51c-1.06-2.02-2.14-4.01-3.27-5.99l16.95-9.78
				c1.29,2.27,2.54,4.57,3.76,6.89L472.02,355.51z M466.79,346.14c-1.16-1.96-2.35-3.9-3.57-5.81l16.42-10.65
				c1.41,2.2,2.77,4.43,4.1,6.69L466.79,346.14z M461.07,337.05c-1.26-1.89-2.55-3.77-3.87-5.62l15.83-11.49
				c1.52,2.12,3,4.28,4.45,6.46L461.07,337.05z M454.9,328.27c-1.36-1.82-2.75-3.62-4.16-5.4l15.21-12.3
				c1.63,2.04,3.23,4.11,4.79,6.21L454.9,328.27z M448.27,319.83c-1.45-1.75-2.94-3.47-4.44-5.17l14.54-13.08
				c1.73,1.96,3.45,3.93,5.11,5.95L448.27,319.83z M441.21,311.75c-1.54-1.67-3.11-3.32-4.7-4.94l13.84-13.82
				c1.83,1.86,3.64,3.76,5.41,5.68L441.21,311.75z M129.83,292.99l13.84,13.82c-1.59,1.62-3.16,3.27-4.7,4.94l-14.54-13.08
				C126.19,296.75,127.99,294.85,129.83,292.99z M124.42,601.9l14.54-13.08c1.54,1.67,3.11,3.32,4.7,4.94l-13.84,13.82
				C127.99,605.72,126.19,603.82,124.42,601.9z M450.35,607.58l-13.84-13.82c1.59-1.62,3.16-3.27,4.7-4.94l14.54,13.08
				C453.99,603.82,452.18,605.72,450.35,607.58z"/>
		</g>
		<g>
			<ellipse style="fill:#D1E7DD;" cx="290.09" cy="450.28" rx="197.4" ry="197.15"/>
		</g>
	</g>
</g>
<g id="BICCHIERE">
	<polygon style="fill:#CBCDC9;" points="293.54,467.43 286.63,467.43 215.73,467.43 234.76,685.19 286.63,685.19 293.54,685.19 
		345.41,685.19 364.45,467.43 	"/>
	<path style="fill:#E2E7E3;" d="M239.64,644.79l-15.5-177.36h131.91l-15.53,177.65c-0.49,5.62-5.2,9.92-10.84,9.9l-79.27-0.28
		C244.79,654.67,240.12,650.38,239.64,644.79z"/>
	<path style="fill:#F7B004;" d="M307.16,534.23c-8.4,0-21.93-13.9-34.52-13.9c-12.6,0-30.42,6.9-34.18,14.83l9.52,108.9
		c0.11,1.28,1.17,2.25,2.45,2.25l79.28,0.28c1.29,0,2.35-0.97,2.46-2.25l9.54-109.18C337.26,526.77,315.56,534.23,307.16,534.23z"/>
</g>
<g id="LIMONE">
	<path style="fill:#558A32;" d="M290.09,655.59c58.43,0,105.8-47.37,105.8-105.8h-211.6C184.28,608.22,231.65,655.59,290.09,655.59z
		"/>
	<path style="fill:#DBDC40;" d="M290.09,629.75c44.16,0,79.96-35.8,79.96-79.96H210.13C210.13,593.95,245.93,629.75,290.09,629.75z"
		/>
	<path style="fill:#FAF088;" d="M297.78,549.79L297.78,549.79l71.15,13.29c-2.04,12.18-6.82,23.42-13.7,33.07l-59.71-40.92
		l40.92,59.71c-9.65,6.88-20.89,11.66-33.07,13.7l-13.29-71.15l-13.29,71.15c-12.18-2.04-23.42-6.82-33.07-13.7l40.92-59.71
		l-59.71,40.92c-6.88-9.65-11.66-20.89-13.7-33.07l71.15-13.29h0h-85.51l0,0c0,51.48,41.73,93.21,93.21,93.21
		c51.48,0,93.21-41.73,93.21-93.21l0,0H297.78z"/>
</g>
<g id="TAPPO">
	<g id="TAPPO_SUPERIORE">
		<path style="fill:#BF382D;" d="M332.6,83.15V32.82c3.59-0.24,6.44-3.22,6.44-6.88c0-3.66-2.84-6.64-6.44-6.88v-6.04l0,0
			C332.6,5.83,326.77,0,319.58,0h-59.06c-7.19,0-13.02,5.83-13.02,13.02l0,0v6.02h-2.54c-3.81,0-6.9,3.09-6.9,6.9s3.09,6.9,6.9,6.9
			h2.54v50.29h-2.54c-3.81,0-6.9,3.09-6.9,6.9c0,3.81,3.09,6.9,6.9,6.9h87.16c3.81,0,6.9-3.09,6.9-6.9
			C339.04,86.38,336.19,83.39,332.6,83.15z"/>
		<path style="fill:#831D18;" d="M264,82.87c4.29-1.83,8.58-2.78,12.88-3.46c4.29-0.64,8.58-0.94,12.88-0.94
			c4.29,0.01,8.58,0.31,12.88,0.95c4.29,0.68,8.58,1.62,12.88,3.44v0.52l-6.44,0.13l-6.44,0.05l-12.88,0.09l-12.88-0.09l-6.44-0.05
			L264,83.39V82.87z"/>
		<path style="fill:#831D18;" d="M264,32.02c4.29-1.83,8.58-2.78,12.88-3.46c4.29-0.64,8.58-0.94,12.88-0.94
			c4.29,0.01,8.58,0.31,12.88,0.95c4.29,0.68,8.58,1.62,12.88,3.44v0.52l-6.44,0.13l-6.44,0.05l-12.88,0.09l-12.88-0.09l-6.44-0.05
			L264,32.54V32.02z"/>
		<path style="fill:#831D18;" d="M251.5,90.03c0-3.81,3.09-6.9,6.9-6.9h2.54V32.84h-2.54c-3.81,0-6.9-3.09-6.9-6.9s3.09-6.9,6.9-6.9
			h2.54v-6.02c0-7.19,5.83-13.02,13.02-13.02h-13.44c-7.19,0-13.02,5.83-13.02,13.02v6.02h-2.54c-3.81,0-6.9,3.09-6.9,6.9
			s3.09,6.9,6.9,6.9h2.54v50.29h-2.54c-3.81,0-6.9,3.09-6.9,6.9c0,3.81,3.09,6.9,6.9,6.9h13.44
			C254.59,96.94,251.5,93.85,251.5,90.03z"/>
		<path style="fill:#CF5852;" d="M328.67,90.03c0-3.81-3.09-6.9-6.9-6.9h-2.54V32.84h2.54c3.81,0,6.9-3.09,6.9-6.9
			s-3.09-6.9-6.9-6.9h-2.54v-6.02C319.23,5.83,313.4,0,306.21,0l13.44,0c7.19,0,13.02,5.83,13.02,13.02v6.02h2.54
			c3.81,0,6.9,3.09,6.9,6.9s-3.09,6.9-6.9,6.9h-2.54v50.29h2.54c3.81,0,6.9,3.09,6.9,6.9c0,3.81-3.09,6.9-6.9,6.9h-13.44
			C325.58,96.94,328.67,93.85,328.67,90.03z"/>
	</g>
	<g id="TAPPO_INFERIORE">
		<rect x="259.34" y="96.94" style="fill:#831D18;" width="60.83" height="76.79"/>
		<polygon style="fill:#661411;" points="320.17,96.94 274.71,96.94 259.34,96.94 259.34,112.31 259.34,173.72 274.71,173.72 
			274.71,112.31 320.17,112.31 		"/>
	</g>
</g>
<g id="BOTTIGLIA">
	<g id="CORPO_BOTTIGLIA">
		<path style="fill:#F7B004;" d="M421.86,707.25l-0.79-356.83c-0.09-42.35-61.81-70.99-79.39-78.55l-2.24,0
			c6.19-0.01,11.2-5.04,11.19-11.24v0c-0.01-6.19-5.04-11.2-11.24-11.19l-2.74,0.01c-16.02-34.84,10.79-79.06-6.23-135.94l3.1-0.01
			c3.81-0.01,6.9-3.11,6.89-6.92c-0.01-3.81-3.11-6.9-6.92-6.89l-18.19,0.04v-0.1h-26.24h-19.95H245.3c-3.81,0-6.9,3.09-6.9,6.9
			c0,3.81,3.09,6.9,6.9,6.9h3.1c-16.89,56.91,10.02,101.07-5.93,135.95h-2.74c-6.19,0-11.21,5.02-11.21,11.21v0
			c0,6.19,5.02,11.21,11.21,11.21h-2.24c-17.56,7.6-79.22,36.37-79.22,78.72v356.83c-8.02,2.54-13.83,10.03-13.83,18.88
			c0,10.94,8.87,19.81,19.81,19.81h104.86v0.16h46.18v-0.05l100.67-0.22c10.94-0.02,19.79-8.91,19.76-19.85
			C435.71,717.25,429.88,709.76,421.86,707.25z"/>
		<g>
			<g>
				<g>
					<path style="fill:#F59D08;" d="M162.92,726.26c0-8.85,5.81-16.35,13.83-18.88V350.54c0-42.35,61.66-71.12,79.22-78.72h2.24
						c-6.19,0-11.21-5.02-11.21-11.21v0c0-6.19,5.02-11.21,11.21-11.21h2.74c15.94-34.88-10.96-79.04,5.93-135.95h-3.1
						c-3.81,0-6.9-3.09-6.9-6.9c0-3.81,3.09-6.9,6.9-6.9H245.3c-3.81,0-6.9,3.09-6.9,6.9c0,3.81,3.09,6.9,6.9,6.9h3.1
						c-16.89,56.91,10.02,101.07-5.93,135.95h-2.74c-6.19,0-11.21,5.02-11.21,11.21v0c0,6.19,5.02,11.21,11.21,11.21h-2.24
						c-17.56,7.6-79.22,36.37-79.22,78.72v356.83c-8.02,2.54-13.83,10.03-13.83,18.88c0,10.94,8.87,19.81,19.81,19.81h18.47
						C171.79,746.07,162.92,737.2,162.92,726.26z"/>
				</g>
				<g>
					<path style="fill:#F59D08;" d="M333.77,99.75l0.46,0c-0.15-0.02-0.3-0.02-0.46-0.03V99.75z"/>
				</g>
				<g>
					<rect x="269.11" y="746.07" style="fill:#F59D08;" width="18.47" height="0.16"/>
				</g>
			</g>
		</g>
		<g>
			<polygon style="fill:#F4BE53;" points="315.3,99.72 315.3,99.64 303.56,99.64 303.56,99.75 			"/>
			<path style="fill:#F4BE53;" d="M421.86,707.25l-0.79-356.83c-0.09-42.35-61.81-70.99-79.39-78.55l-2.24,0
				c6.19-0.01,11.2-5.04,11.19-11.24v0c-0.01-6.19-5.04-11.2-11.24-11.19l-2.74,0.01c-16.02-34.84,10.79-79.06-6.23-135.94l3.1-0.01
				c3.81-0.01,6.9-3.11,6.89-6.92c-0.01-3.81-3.11-6.9-6.92-6.89l-11.22,0.02c3.57,0.26,6.4,3.22,6.41,6.86
				c0.01,3.81-3.08,6.91-6.89,6.92l-3.1,0.01c17.01,56.88-9.8,101.09,6.23,135.94l2.74-0.01c6.19-0.01,11.22,4.99,11.24,11.19v0
				c0.01,6.19-4.99,11.22-11.19,11.24l2.24,0c17.58,7.56,79.3,36.2,79.39,78.55l0.79,356.83c8.02,2.52,13.85,10,13.87,18.85
				c0.02,10.94-8.82,19.82-19.76,19.85l-100.67,0.22v0.05h11.74v-0.05l100.67-0.22c10.94-0.02,19.79-8.91,19.76-19.85
				C435.71,717.25,429.88,709.76,421.86,707.25z"/>
		</g>
		<path style="fill:#F59D08;" d="M264.34,270.68c4.29-1.83,8.58-2.78,12.88-3.46c4.29-0.64,8.58-0.94,12.88-0.94
			c4.29,0.01,8.58,0.31,12.88,0.95c4.29,0.68,8.58,1.62,12.88,3.44v0.52l-6.44,0.13l-6.44,0.05l-12.88,0.09l-12.88-0.09l-6.44-0.05
			l-6.44-0.13V270.68z"/>
		<path style="fill:#F59D08;" d="M187.29,707.54c17.13-1.83,34.26-2.78,51.4-3.46c17.13-0.64,34.26-0.94,51.4-0.94
			c17.13,0.01,34.26,0.31,51.4,0.95c17.13,0.68,34.26,1.62,51.4,3.44v0.52l-25.7,0.13l-25.7,0.05l-51.4,0.09l-51.4-0.09l-25.7-0.05
			l-25.7-0.13V707.54z"/>
		<path style="fill:#F59D08;" d="M308.44,113.72c-3.06,1.83-6.12,2.78-9.18,3.46c-3.06,0.64-6.12,0.94-9.18,0.94
			c-3.06-0.01-6.12-0.31-9.18-0.95c-3.06-0.68-6.12-1.62-9.18-3.44v-0.52l4.59-0.13l4.59-0.05l9.18-0.09l9.18,0.09l4.59,0.05
			l4.59,0.13V113.72z"/>
	</g>
	<g id="ETICHETTA">
		<g>
			<g>
				<path style="fill:#BF382D;" d="M309.21,374.22h-38.25c-36.22,0-65.59,29.37-65.59,65.59v10.64v84.44v65.59h65.59h38.25h65.59
					v-65.59v-84.44v-10.64C374.8,403.59,345.44,374.22,309.21,374.22z"/>
			</g>
			<g>
				<path style="fill:#FFFFFF;" d="M377.02,602.69H203.15V439.81c0-37.39,30.42-67.81,67.81-67.81h38.25
					c37.39,0,67.81,30.42,67.81,67.81V602.69z M207.59,598.26h165V439.81c0-34.94-28.43-63.37-63.37-63.37h-38.25
					c-34.94,0-63.37,28.43-63.37,63.37V598.26z"/>
			</g>
		</g>
		<g>
			<path style="fill:#FFFFFF;" d="M228.68,551.93c-0.52,0.33-1.1,0.5-1.74,0.5s-1.23-0.17-1.77-0.5c-0.55,0.33-1.06,0.5-1.52,0.5
				c-0.46,0-0.83-0.04-1.11-0.11c-0.28-0.08-0.53-0.18-0.74-0.31c-0.43-0.26-0.65-0.59-0.65-0.98c0-0.2,0.06-0.38,0.17-0.53
				c0.22,0.17,0.51,0.26,0.88,0.26s0.74-0.1,1.11-0.29c0.38-0.19,0.66-0.49,0.85-0.89v-7.34c0-0.46-0.1-0.8-0.29-1.02
				c-0.3-0.37-0.82-0.74-1.55-1.1c0.68-0.31,1.12-0.59,1.33-0.83c0.34-0.39,0.51-0.83,0.51-1.33v-6.99
				c-0.33-0.12-0.73-0.18-1.18-0.18s-0.94,0.12-1.44,0.36c-0.5,0.24-0.95,0.59-1.36,1.05c-0.89,1.04-1.34,2.41-1.34,4.1
				c0,0.97,0.16,1.69,0.48,2.15c-0.12,0.25-0.35,0.38-0.68,0.38s-0.63-0.08-0.89-0.23c-0.26-0.15-0.49-0.36-0.68-0.62
				c-0.39-0.52-0.59-1.08-0.59-1.69s0.11-1.11,0.33-1.54c-0.37-0.44-0.56-0.94-0.56-1.5c0-0.56,0.15-1.02,0.45-1.38
				c-0.42-0.45-0.63-1.06-0.63-1.82c0-0.88,0.41-1.48,1.22-1.78c0.24-0.09,0.45-0.14,0.63-0.14c0.34,0,0.6,0.08,0.77,0.23
				c-0.07,0.24-0.11,0.41-0.11,0.51c0,0.4,0.14,0.6,0.42,0.6c0.15,0,0.31-0.02,0.47-0.06l0.68-0.2c1.17-0.31,2.15-0.47,2.94-0.47
				s1.47,0.17,2.06,0.51c0.51-0.34,1.09-0.51,1.75-0.51s1.25,0.17,1.78,0.51c0.57-0.34,1.16-0.51,1.78-0.51
				c0.97,0,1.83,0.1,2.56,0.3l1.34,0.36c0.16,0.04,0.32,0.06,0.47,0.06c0.28,0,0.42-0.2,0.42-0.6c0-0.1-0.04-0.27-0.11-0.51
				c0.17-0.15,0.39-0.23,0.65-0.23c0.26,0,0.51,0.05,0.75,0.14c0.24,0.09,0.45,0.22,0.63,0.39c0.39,0.35,0.59,0.86,0.59,1.51
				c0,0.66-0.21,1.22-0.63,1.69c0.3,0.36,0.45,0.82,0.45,1.37s-0.19,1.05-0.57,1.51c0.23,0.41,0.35,0.82,0.35,1.24
				s-0.05,0.78-0.15,1.11s-0.25,0.62-0.44,0.87c-0.41,0.56-0.93,0.84-1.55,0.84c-0.34,0-0.57-0.13-0.69-0.38
				c0.32-0.46,0.48-1.16,0.48-2.09c0-0.93-0.12-1.74-0.37-2.42c-0.25-0.69-0.57-1.27-0.97-1.74c-0.81-0.94-1.77-1.42-2.88-1.42
				c-0.42,0-0.79,0.06-1.1,0.18v6.99c0,0.49,0.11,0.86,0.32,1.1c0.33,0.39,0.84,0.74,1.52,1.05c-0.73,0.36-1.2,0.66-1.4,0.89
				c-0.29,0.36-0.44,0.77-0.44,1.24v7.34c0.18,0.4,0.46,0.7,0.84,0.89c0.38,0.19,0.75,0.29,1.12,0.29c0.37,0,0.67-0.09,0.89-0.26
				c0.11,0.15,0.17,0.32,0.17,0.52s-0.06,0.38-0.17,0.55s-0.27,0.32-0.47,0.44c-0.46,0.28-1,0.42-1.62,0.42
				C229.84,552.43,229.25,552.26,228.68,551.93z M225.61,548.14c0.5-0.19,0.78-0.85,0.83-1.97c0.06-1.12,0.09-2.68,0.09-4.67
				s0-3.31-0.01-3.97c-0.01-0.66-0.01-1.19-0.02-1.59c-0.03-1.18-0.14-1.9-0.34-2.15c-0.2-0.25-0.38-0.41-0.55-0.49
				c0,3.49-0.06,5.48-0.18,5.96c-0.14,0.4-0.48,0.69-1.02,0.86c0.6,0.21,0.94,0.47,1.02,0.77c0.12,0.48,0.18,2.24,0.18,5.29V548.14z
				"/>
			<path style="fill:#FFFFFF;" d="M245.09,552.43c-0.66,0-1.25-0.16-1.76-0.48c-0.51,0.32-0.99,0.48-1.42,0.48s-0.8-0.04-1.08-0.11
				c-0.28-0.08-0.53-0.18-0.74-0.31c-0.43-0.26-0.65-0.59-0.65-0.98c0-0.2,0.06-0.38,0.17-0.53c0.22,0.17,0.5,0.26,0.84,0.26
				c0.89,0,1.51-0.38,1.85-1.14v-7.37c0-0.46-0.1-0.8-0.29-1.02c-0.3-0.37-0.82-0.74-1.55-1.1c0.68-0.31,1.12-0.59,1.33-0.83
				c0.34-0.39,0.51-0.83,0.51-1.33v-6.36c-0.34-0.77-0.96-1.16-1.85-1.16c-0.34,0-0.62,0.09-0.84,0.26
				c-0.11-0.15-0.17-0.32-0.17-0.52s0.06-0.38,0.17-0.55s0.27-0.32,0.47-0.44c0.46-0.28,0.99-0.42,1.59-0.42
				c0.6,0,1.15,0.17,1.65,0.5c0.52-0.33,1.12-0.5,1.79-0.5s1.29,0.2,1.84,0.59c1.06-0.39,2.29-0.59,3.69-0.59
				c1.03,0,1.92,0.1,2.65,0.3l1.34,0.36c0.16,0.04,0.32,0.06,0.47,0.06c0.28,0,0.42-0.2,0.42-0.6c0-0.1-0.04-0.27-0.11-0.51
				c0.28-0.05,0.64-0.08,1.07-0.08s0.8,0.14,1.1,0.43c0.3,0.29,0.45,0.7,0.45,1.24c0,0.54-0.1,0.93-0.29,1.18
				c0.27,0.4,0.41,0.89,0.41,1.47c0,0.58-0.2,1.06-0.59,1.45c0.12,0.3,0.18,0.59,0.18,0.88s-0.05,0.55-0.14,0.78
				c-0.1,0.24-0.21,0.43-0.35,0.59c-0.28,0.29-0.57,0.44-0.86,0.44c-0.42,0-0.8-0.09-1.14-0.27c0.12-0.24,0.18-0.6,0.18-1.07
				c0-1.1-0.28-2.07-0.83-2.91c-0.75-1.14-1.88-1.72-3.39-1.72c-0.76,0-1.45,0.19-2.07,0.56s-1.05,0.9-1.3,1.6v5.83
				c0.35,0.22,0.68,0.33,0.99,0.33s0.54-0.01,0.69-0.02c0.16-0.01,0.31-0.03,0.47-0.06c0.41-0.06,0.73-0.14,0.95-0.24
				c0.42-0.2,0.63-0.69,0.63-1.48c0-0.44-0.11-0.78-0.32-1.02c0.2-0.14,0.45-0.21,0.75-0.21c0.67,0,1.16,0.27,1.46,0.81
				c0.11,0.19,0.17,0.4,0.17,0.63c0,0.23-0.06,0.52-0.18,0.86c0.41,0.47,0.62,1.03,0.62,1.68s-0.21,1.21-0.62,1.68
				c0.12,0.34,0.18,0.65,0.18,0.93c0,0.28-0.06,0.54-0.17,0.79s-0.25,0.45-0.41,0.6c-0.31,0.28-0.66,0.42-1.05,0.42
				c-0.28,0-0.53-0.08-0.75-0.24c0.21-0.35,0.32-0.76,0.32-1.24c0-0.93-0.26-1.51-0.77-1.73c-0.45-0.18-0.97-0.27-1.55-0.27
				c-0.58,0-1.05,0.11-1.42,0.32v7.53c0.58,1.02,1.71,1.54,3.37,1.54c1.89,0,3.17-0.58,3.86-1.75c0.79-1.34,1.19-2.77,1.19-4.29
				c0-0.44-0.04-0.78-0.12-1.02c0.25-0.25,0.51-0.38,0.78-0.38s0.48,0.04,0.62,0.11c0.14,0.08,0.27,0.17,0.38,0.28
				c0.24,0.27,0.36,0.55,0.36,0.83l-0.09,0.74c0,0.19,0.05,0.35,0.15,0.47c0.2,0.21,0.3,0.41,0.3,0.59c0,0.19-0.06,0.41-0.18,0.67
				c0.23,0.13,0.44,0.32,0.63,0.58s0.28,0.52,0.28,0.79c0,0.57-0.24,1.08-0.72,1.54c0.21,0.3,0.32,0.74,0.32,1.3
				s-0.16,1.05-0.49,1.45c-0.33,0.4-0.75,0.59-1.27,0.59c-0.28,0-0.57-0.03-0.87-0.09c0.04-0.22,0.06-0.44,0.06-0.66
				c0-0.46-0.21-0.69-0.63-0.69c-0.47,0-0.94,0.1-1.42,0.29c-1.11,0.45-2.38,0.68-3.8,0.68c-1.42,0-2.63-0.19-3.62-0.56
				C246.39,552.24,245.78,552.43,245.09,552.43z M243.75,548.14c0.5-0.19,0.78-0.85,0.83-1.97c0.06-1.12,0.09-2.68,0.09-4.67
				s0-3.31-0.01-3.97c-0.01-0.66-0.01-1.19-0.02-1.59c-0.03-1.18-0.14-1.9-0.34-2.15c-0.2-0.25-0.38-0.41-0.55-0.49
				c0,3.49-0.06,5.48-0.18,5.96c-0.14,0.4-0.48,0.69-1.02,0.86c0.6,0.21,0.94,0.47,1.02,0.77c0.12,0.48,0.18,2.24,0.18,5.29V548.14z
				 M247.54,547.99c0,0.03,0.01,0.06,0.02,0.08L247.54,547.99z"/>
			<path style="fill:#FFFFFF;" d="M283.72,554.42c0.36-0.25,0.62-0.58,0.78-0.98c0.37,0,0.65,0.23,0.84,0.68
				c0.06,0.13,0.09,0.32,0.09,0.58c0,0.26-0.09,0.54-0.26,0.87c-0.17,0.32-0.4,0.6-0.68,0.84c-0.61,0.49-1.31,0.74-2.09,0.74
				c-0.74,0-1.38-0.11-1.91-0.32c-0.85-0.33-1.81-0.82-2.86-1.45c-1.05-0.64-1.86-1.08-2.4-1.34c-0.55-0.26-1.06-0.46-1.54-0.61
				c-0.83-0.26-1.71-0.39-2.62-0.39c-1.8,0-2.84,1.13-3.13,3.39c-0.55,0-1.04-0.21-1.48-0.62c-0.39-0.38-0.59-0.82-0.59-1.33
				c0-1.32,0.73-2.2,2.2-2.65c-2.48-1.07-4.2-3.08-5.17-6.01c-0.32-0.95-0.53-1.88-0.63-2.77c-0.1-0.89-0.27-1.55-0.52-1.97
				c-0.25-0.42-0.59-0.74-1.05-0.96c0.87-0.41,1.39-1.26,1.54-2.54c0.16-1.28,0.51-2.48,1.06-3.59c0.55-1.11,1.26-2.07,2.11-2.86
				c1.8-1.67,3.96-2.5,6.49-2.5c2.6,0,4.75,0.77,6.46,2.32c1.78,1.61,2.82,3.86,3.13,6.75c0.13,1.2,0.64,2.01,1.54,2.42
				c-0.87,0.43-1.38,1.27-1.52,2.51c-0.14,1.24-0.37,2.36-0.69,3.36c-0.32,1-0.74,1.9-1.27,2.7c-1.05,1.64-2.49,2.76-4.29,3.37
				c0.29,0.08,0.6,0.18,0.92,0.29l0.96,0.35c0.47,0.18,0.91,0.34,1.33,0.47c0.85,0,1.48-0.29,1.87-0.86
				c0.23,0.07,0.44,0.19,0.62,0.36c0.18,0.17,0.27,0.34,0.27,0.51s-0.02,0.32-0.05,0.44c0.37-0.07,0.68-0.23,0.91-0.47
				c0.24-0.24,0.39-0.51,0.46-0.81c0.3,0.06,0.55,0.19,0.74,0.38c0.32,0.34,0.48,0.65,0.48,0.92
				C283.78,553.99,283.76,554.25,283.72,554.42z M265.66,548.14c0.15-0.06,0.23-0.17,0.23-0.32c0-0.22-0.11-0.57-0.32-1.04
				c-0.53-1.21-0.8-3.43-0.8-6.66c0-2.35,0.28-4.35,0.84-5.99c0.07-0.25,0.11-0.44,0.11-0.57c0-0.13-0.07-0.22-0.2-0.26
				c-0.47,0.59-0.81,1.18-1.01,1.76c-0.37,1.06-0.67,2.51-0.89,4.32c-0.03,0.26-0.33,0.51-0.89,0.74c0.56,0.25,0.86,0.51,0.89,0.77
				c0.36,3.11,0.82,5.19,1.39,6.24C265.2,547.5,265.42,547.83,265.66,548.14z M270.21,540.12c-1.1,0.53-1.66,1.4-1.66,2.61v4.47
				c0,1.64,0.68,2.69,2.03,3.15c0.4,0.14,0.84,0.21,1.31,0.21c0.47,0,0.91-0.07,1.3-0.21c0.4-0.14,0.74-0.35,1.03-0.63
				c0.6-0.58,0.9-1.42,0.9-2.52v-4.47c0-1.2-0.54-2.07-1.63-2.61c1.08-0.5,1.63-1.31,1.63-2.42v-3.6c0-1.11-0.33-1.98-0.98-2.61
				c-0.61-0.57-1.37-0.86-2.27-0.86c-1.54,0-2.56,0.64-3.07,1.93c-0.17,0.43-0.26,0.94-0.26,1.54v3.6
				C268.55,538.83,269.11,539.64,270.21,540.12z M276.52,533.3c0.28,0.84,0.42,2.29,0.42,4.35c0,1.16-0.05,1.8-0.15,1.91
				s-0.2,0.2-0.3,0.27c-0.18,0.12-0.38,0.22-0.59,0.29c0.6,0.27,0.92,0.53,0.95,0.78c0.1,0.98,0.15,1.84,0.15,2.55
				s-0.01,1.3-0.03,1.73c-0.02,0.44-0.05,0.84-0.09,1.21c-0.08,0.79-0.18,1.37-0.3,1.73c0.78-0.24,1.22-1.4,1.31-3.48
				c0.05-1.16,0.08-2.46,0.08-3.89c0-1.43-0.02-2.51-0.05-3.22s-0.08-1.31-0.14-1.77c-0.12-1.06-0.37-1.8-0.75-2.21
				C276.92,533.44,276.75,533.35,276.52,533.3z"/>
			<path style="fill:#FFFFFF;" d="M303.66,547.23c0.18,0.44,0.55,0.86,1.1,1.27c-0.35,0.14-0.79,0.47-1.32,0.99
				c-0.53,0.52-1.12,0.99-1.77,1.4s-1.3,0.74-1.94,0.99c-1.16,0.46-2.42,0.69-3.77,0.69s-2.58-0.16-3.68-0.48
				c-1.1-0.32-2.01-0.76-2.73-1.31c-1.42-1.09-2.12-2.55-2.12-4.37v-4.17c0-0.46-0.1-0.8-0.29-1.02c-0.3-0.37-0.82-0.74-1.55-1.1
				c0.68-0.31,1.12-0.59,1.33-0.83c0.34-0.39,0.51-0.83,0.51-1.33v-6.36c-0.34-0.77-0.96-1.16-1.85-1.16
				c-0.34,0-0.62,0.09-0.84,0.26c-0.11-0.15-0.17-0.32-0.17-0.52s0.06-0.38,0.17-0.55s0.27-0.32,0.47-0.44
				c0.46-0.28,0.99-0.42,1.59-0.42s1.15,0.17,1.65,0.5c0.52-0.33,1.1-0.5,1.75-0.5s1.23,0.17,1.75,0.5c0.5-0.33,0.97-0.5,1.42-0.5
				c0.44,0,0.8,0.04,1.08,0.11c0.28,0.08,0.53,0.18,0.74,0.31c0.43,0.26,0.65,0.59,0.65,0.98c0,0.2-0.06,0.38-0.17,0.53
				c-0.22-0.17-0.5-0.26-0.84-0.26c-0.89,0-1.51,0.39-1.85,1.16v6.36c0,0.49,0.11,0.86,0.32,1.1c0.33,0.39,0.84,0.74,1.52,1.05
				c-0.73,0.36-1.2,0.66-1.4,0.89c-0.29,0.36-0.44,0.77-0.44,1.24v4.2c0,1.22,0.46,2.21,1.37,3c0.84,0.71,1.8,1.07,2.88,1.07
				c1.12,0,2.12-0.35,3-1.04c0.89-0.7,1.34-1.56,1.34-2.56v-4.8c0-0.44-0.1-0.77-0.29-0.98c-0.29-0.31-0.81-0.65-1.55-1.01
				c0.69-0.34,1.14-0.62,1.34-0.83c0.33-0.35,0.5-0.74,0.5-1.17v-6.7c-0.43-0.64-0.96-0.96-1.58-0.96s-1.08,0.09-1.37,0.26
				c-0.11-0.18-0.17-0.43-0.17-0.75c0-0.32,0.16-0.59,0.47-0.83s0.72-0.35,1.22-0.35c0.5,0,0.95,0.13,1.34,0.39
				c0.35-0.26,0.76-0.39,1.21-0.39c0.46,0,0.86,0.14,1.21,0.41c0.39-0.27,0.82-0.41,1.3-0.41c0.47,0,0.85,0.12,1.14,0.37
				c0.29,0.25,0.43,0.53,0.43,0.85c0,0.32-0.05,0.56-0.15,0.71c-0.29-0.17-0.76-0.26-1.39-0.26c-0.64,0-1.15,0.32-1.54,0.96v6.7
				c0,0.44,0.1,0.76,0.29,0.96c0.3,0.31,0.87,0.66,1.7,1.04c-0.88,0.43-1.41,0.73-1.58,0.9c-0.27,0.27-0.41,0.63-0.41,1.08V547.23z
				 M289.66,548.14c0.09-0.54,0.14-2.28,0.14-5.22s0-4.73-0.01-5.39c-0.01-0.66-0.01-1.19-0.02-1.59c-0.03-1.18-0.14-1.9-0.34-2.15
				c-0.2-0.25-0.38-0.41-0.55-0.49c0,3.49-0.06,5.48-0.18,5.96c-0.14,0.4-0.48,0.69-1.02,0.86c0.6,0.21,0.94,0.47,1.02,0.77
				c0.12,0.48,0.18,1.52,0.18,3.12s0.02,2.54,0.07,2.83c0.05,0.29,0.11,0.53,0.19,0.71C289.26,547.87,289.43,548.07,289.66,548.14z"
				/>
			<path style="fill:#FFFFFF;" d="M315.56,551.95c-0.51,0.32-1.09,0.48-1.75,0.48s-1.24-0.16-1.75-0.48
				c-0.51,0.32-0.99,0.48-1.42,0.48s-0.8-0.04-1.08-0.11c-0.28-0.08-0.53-0.18-0.74-0.31c-0.43-0.26-0.65-0.59-0.65-0.98
				c0-0.2,0.06-0.38,0.17-0.53c0.22,0.17,0.5,0.26,0.84,0.26c0.89,0,1.51-0.38,1.85-1.14v-7.37c0-0.46-0.1-0.8-0.29-1.02
				c-0.3-0.37-0.82-0.74-1.55-1.1c0.68-0.31,1.12-0.59,1.33-0.83c0.34-0.39,0.51-0.83,0.51-1.33v-6.36
				c-0.34-0.77-0.96-1.16-1.85-1.16c-0.34,0-0.62,0.09-0.84,0.26c-0.11-0.15-0.17-0.32-0.17-0.52s0.06-0.38,0.17-0.55
				s0.27-0.32,0.47-0.44c0.46-0.28,0.99-0.42,1.59-0.42s1.15,0.17,1.65,0.5c0.52-0.33,1.1-0.5,1.75-0.5c0.64,0,1.23,0.17,1.75,0.5
				c0.5-0.33,0.97-0.5,1.42-0.5s0.8,0.04,1.08,0.11c0.28,0.08,0.53,0.18,0.74,0.31c0.43,0.26,0.65,0.59,0.65,0.98
				c0,0.2-0.06,0.38-0.17,0.53c-0.22-0.17-0.5-0.26-0.84-0.26c-0.89,0-1.51,0.39-1.85,1.16v6.36c0,0.49,0.11,0.86,0.32,1.1
				c0.33,0.39,0.84,0.74,1.52,1.05c-0.73,0.36-1.2,0.66-1.4,0.89c-0.29,0.36-0.44,0.77-0.44,1.24v7.37
				c0.34,0.76,0.96,1.14,1.85,1.14c0.34,0,0.62-0.09,0.84-0.26c0.11,0.15,0.17,0.32,0.17,0.52s-0.06,0.38-0.17,0.55
				s-0.27,0.32-0.47,0.44c-0.46,0.28-0.99,0.42-1.58,0.42S316.07,552.27,315.56,551.95z M312.49,548.14
				c0.5-0.19,0.78-0.85,0.83-1.97c0.06-1.12,0.09-2.68,0.09-4.67s0-3.31-0.01-3.97c-0.01-0.66-0.01-1.19-0.02-1.59
				c-0.03-1.18-0.14-1.9-0.34-2.15c-0.2-0.25-0.38-0.41-0.55-0.49c0,3.49-0.06,5.48-0.18,5.96c-0.14,0.4-0.48,0.69-1.02,0.86
				c0.6,0.21,0.94,0.47,1.02,0.77c0.12,0.48,0.18,2.24,0.18,5.29V548.14z"/>
			<path style="fill:#FFFFFF;" d="M327.35,552.43c-0.66,0-1.25-0.16-1.76-0.48c-0.51,0.32-0.99,0.48-1.42,0.48s-0.8-0.04-1.08-0.11
				c-0.28-0.08-0.53-0.18-0.74-0.31c-0.43-0.26-0.65-0.59-0.65-0.98c0-0.2,0.06-0.38,0.17-0.53c0.22,0.17,0.5,0.26,0.84,0.26
				c0.89,0,1.51-0.38,1.85-1.14v-7.37c0-0.46-0.1-0.8-0.29-1.02c-0.3-0.37-0.82-0.74-1.55-1.1c0.68-0.31,1.12-0.59,1.33-0.83
				c0.34-0.39,0.51-0.83,0.51-1.33v-6.36c-0.34-0.77-0.96-1.16-1.85-1.16c-0.34,0-0.62,0.09-0.84,0.26
				c-0.11-0.15-0.17-0.32-0.17-0.52s0.06-0.38,0.17-0.55s0.27-0.32,0.47-0.44c0.46-0.28,0.99-0.42,1.59-0.42s1.15,0.17,1.65,0.5
				c0.52-0.33,1.1-0.5,1.75-0.5s1.23,0.17,1.75,0.5c0.56-0.33,1.07-0.5,1.54-0.5c0.46,0,0.83,0.04,1.11,0.11
				c0.28,0.08,0.53,0.18,0.74,0.31c0.43,0.26,0.65,0.59,0.65,0.98c0,0.2-0.06,0.38-0.17,0.53c-0.22-0.17-0.52-0.26-0.89-0.26
				s-0.75,0.1-1.12,0.29s-0.66,0.49-0.84,0.88v6.34c0,0.49,0.11,0.86,0.32,1.1c0.33,0.39,0.84,0.74,1.52,1.05
				c-0.73,0.36-1.2,0.66-1.4,0.89c-0.29,0.36-0.44,0.77-0.44,1.24v6.58c0.66,1.05,1.49,1.58,2.49,1.58c2.46,0,4.04-1.04,4.74-3.13
				c0.31-0.92,0.47-1.77,0.47-2.54c0-0.77-0.11-1.28-0.32-1.54c0.23-0.19,0.47-0.29,0.72-0.29s0.47,0.05,0.69,0.15
				c0.21,0.1,0.4,0.25,0.57,0.45c0.35,0.41,0.53,0.9,0.53,1.46c0,0.56-0.05,0.99-0.14,1.3c0.46,0.38,0.69,0.92,0.69,1.61
				c0,0.69-0.2,1.26-0.59,1.69c0.33,0.42,0.5,0.8,0.5,1.14c0,0.34-0.05,0.64-0.14,0.88c-0.1,0.25-0.23,0.46-0.4,0.66
				c-0.38,0.39-0.84,0.59-1.37,0.59c-0.26,0-0.5-0.06-0.72-0.17c0.04-0.22,0.06-0.44,0.06-0.66c0-0.46-0.21-0.69-0.63-0.69
				c-0.31,0-0.74,0.13-1.3,0.38c-1.06,0.49-2.28,0.74-3.64,0.74c-1.36,0-2.42-0.18-3.19-0.53
				C328.61,552.25,328.02,552.43,327.35,552.43z M326.01,548.14c0.5-0.19,0.78-0.85,0.83-1.97c0.06-1.12,0.09-2.68,0.09-4.67
				s0-3.31-0.01-3.97c-0.01-0.66-0.01-1.19-0.02-1.59c-0.03-1.18-0.14-1.9-0.34-2.15c-0.2-0.25-0.38-0.41-0.55-0.49
				c0,3.49-0.06,5.48-0.18,5.96c-0.14,0.4-0.48,0.69-1.02,0.86c0.6,0.21,0.94,0.47,1.02,0.77c0.12,0.48,0.18,2.24,0.18,5.29V548.14z
				"/>
			<path style="fill:#FFFFFF;" d="M342.72,552.02c-0.37,0.27-0.8,0.41-1.27,0.41s-0.86-0.12-1.14-0.37
				c-0.29-0.25-0.43-0.53-0.43-0.85c0-0.32,0.05-0.56,0.15-0.71c0.29,0.17,0.65,0.26,1.08,0.26s0.75-0.06,0.96-0.17
				c0.22-0.12,0.42-0.27,0.63-0.47l2.14-6.34l0.3-1.04c0.09-0.31,0.14-0.6,0.14-0.86c0-0.91-0.43-1.5-1.3-1.75
				c0.79-0.3,1.35-0.63,1.67-0.98c0.5-0.55,0.9-1.28,1.19-2.18l1.66-5.56c-0.32-0.43-0.7-0.65-1.14-0.65c-0.44,0-0.85,0.1-1.24,0.29
				c-0.1-0.18-0.15-0.38-0.15-0.61c0-0.23,0.05-0.44,0.14-0.64c0.1-0.2,0.23-0.38,0.4-0.53c0.38-0.32,0.92-0.48,1.63-0.48
				s1.3,0.21,1.79,0.63c0.5-0.42,1.13-0.63,1.88-0.63c0.75,0,1.34,0.2,1.78,0.6c0.64-0.4,1.3-0.6,1.96-0.6s1.18,0.13,1.54,0.38
				s0.55,0.59,0.55,1.02c0,0.2-0.06,0.38-0.18,0.53c-0.23-0.17-0.5-0.26-0.81-0.26c-0.67,0-1.11,0.46-1.31,1.37l1.93,6.16
				c0.24,0.77,0.84,1.38,1.81,1.81c0.27,0.12,0.55,0.23,0.83,0.33c-1,0.33-1.51,0.83-1.51,1.49c0,0.25,0.04,0.47,0.12,0.66
				l2.88,7.71c0.44,0.46,0.89,0.69,1.34,0.69c0.45,0,0.8-0.09,1.05-0.26c0.11,0.08,0.17,0.23,0.17,0.45c0,0.22-0.04,0.42-0.11,0.61
				c-0.07,0.19-0.18,0.35-0.33,0.49c-0.32,0.3-0.79,0.45-1.42,0.45s-1.16-0.17-1.63-0.51c-0.52,0.34-1.11,0.51-1.77,0.51
				c-0.66,0-1.22-0.17-1.69-0.5c-0.45,0.33-0.98,0.5-1.6,0.5c-0.61,0-1.12-0.13-1.52-0.38c-0.4-0.26-0.61-0.62-0.63-1.09
				c0-0.28,0.06-0.46,0.17-0.53c0.27,0.17,0.55,0.26,0.83,0.26c0.59,0,1.01-0.12,1.25-0.36l-1.14-3.84h-8.15l-0.99,3.33
				c0.41,0.63,0.91,0.95,1.5,0.95s1.03-0.09,1.32-0.26c0.11,0.18,0.17,0.43,0.17,0.75c0,0.32-0.16,0.59-0.47,0.83
				s-0.71,0.35-1.2,0.35c-0.49,0-0.94-0.13-1.36-0.38c-0.36,0.25-0.78,0.38-1.24,0.38S343.05,552.29,342.72,552.02z M353.73,544.45
				l-3.49-11.61l-3.43,11.61H353.73z M356.6,548.14c0.18,0,0.27-0.2,0.27-0.6c0-0.7-0.11-1.39-0.32-2.05l-0.57-1.76
				c-0.4-1.33-0.6-2.16-0.6-2.5c-0.01-0.56,0.24-0.93,0.74-1.11c-0.69-0.14-1.11-0.36-1.27-0.65c-0.07-0.12-0.13-0.22-0.17-0.29
				s-0.09-0.15-0.14-0.25c-0.05-0.1-0.1-0.22-0.16-0.37c-0.06-0.15-0.14-0.37-0.24-0.65l-0.93-2.82c-0.22-0.7-0.55-1.24-0.98-1.6
				c-0.13-0.11-0.25-0.18-0.36-0.2c0.67,2.43,1.11,3.99,1.33,4.67c1.46,4.48,2.33,7.13,2.62,7.97L356.6,548.14z"/>
		</g>
		<circle style="fill:#F7B004;" cx="289.75" cy="458.19" r="42.59"/>
	</g>
</g>
</svg>
